<svg width="100" height="100" viewBox="0 0 100 100" fill="none" xmlns="http://www.w3.org/2000/svg">
  <defs>
    <radialGradient id="tile" cx="0.5" cy="0.4" r="0.75">
      <stop offset="0" stop-color="#303030"/>
      <stop offset="1" stop-color="#1a1a1a"/>
    </radialGradient>
    <linearGradient id="left" x1="50" y1="11" x2="50" y2="91" gradientUnits="userSpaceOnUse">
      <stop offset="0" stop-color="#8a8a95"/>
      <stop offset="1" stop-color="#4c4c57"/>
    </linearGradient>
    <linearGradient id="right" x1="50" y1="11" x2="50" y2="91" gradientUnits="userSpaceOnUse">
      <stop offset="0" stop-color="#3d3d47"/>
      <stop offset="1" stop-color="#27272e"/>
    </linearGradient>
    <linearGradient id="seam" x1="39" y1="80" x2="64" y2="36" gradientUnits="userSpaceOnUse">
      <stop offset="0" stop-color="#7d39d6"/>
      <stop offset="1" stop-color="#cba2ff"/>
    </linearGradient>
    <radialGradient id="node" cx="0.5" cy="0.5" r="0.5">
      <stop offset="0" stop-color="#ffffff"/>
      <stop offset="0.3" stop-color="#dcb8ff"/>
      <stop offset="0.6" stop-color="#b24dff"/>
      <stop offset="1" stop-color="#9b4dff" stop-opacity="0"/>
    </radialGradient>
  </defs>

  <rect width="100" height="100" rx="22" fill="url(#tile)"/>

  <path d="M50 11 L71 39 L64 87 L51 91 Z" fill="url(#right)"/>
  <path d="M50 11 L30 43 L39 87 L51 91 Z" fill="url(#left)"/>
  <path d="M50 11 L30 43 L39 87" stroke="#a0a0aa" stroke-width="1.4" stroke-linejoin="round" stroke-linecap="round" opacity="0.6" fill="none"/>
  <path d="M50 11 L51 91" stroke="#16161c" stroke-width="1.4" opacity="0.6" fill="none"/>

  <line x1="39" y1="80" x2="64" y2="36" stroke="#9b4dff" stroke-width="7" opacity="0.4" stroke-linecap="round"/>
  <line x1="39" y1="80" x2="64" y2="36" stroke="url(#seam)" stroke-width="3.4" stroke-linecap="round"/>

  <circle cx="64" cy="36" r="11" fill="url(#node)"/>
  <circle cx="64" cy="36" r="3.6" fill="#f7eeff"/>
</svg>
